<svg width="75" height="75" viewBox="0 0 75 75" fill="none" xmlns="http://www.w3.org/2000/svg">
<path d="M34.2689 19.7926C34.2689 19.7926 34.6868 31.6211 30.1577 37.5932C26.7349 42.1064 17.6666 44.6806 16.3963 46.6936C13.4452 51.3703 11.4613 57.9888 21.0694 62.7406C30.6775 67.4924 38.1343 56.8243 38.1343 56.8243C38.1343 56.8243 43.4426 47.5121 41.0905 34.4837C38.7384 21.4553 34.2689 19.7926 34.2689 19.7926Z" fill="#AEC406"/>
<path d="M24.1827 8.19328C24.1827 8.19328 20.086 23.9496 27.649 34.0336C35.2121 44.1176 36.7877 42.542 38.6785 46.3235C40.5692 50.105 39.939 64.2857 24.1827 64.2857C8.42636 64.2857 6.5356 46.3235 6.5356 46.3235C6.5356 46.3235 4.95997 36.2395 10.002 24.895C15.044 13.5504 24.1827 8.19328 24.1827 8.19328Z" fill="#AEC406"/>
<path d="M69 37.5C69 54.897 54.897 69 37.5 69C20.103 69 6 54.897 6 37.5C6 20.103 20.103 6 37.5 6C54.897 6 69 20.103 69 37.5Z" stroke="#AEC406" stroke-width="12"/>
</svg>
