<svg width="119" height="119" viewBox="0 0 119 119" fill="none" xmlns="http://www.w3.org/2000/svg">
<path d="M54.3733 31.4043C54.3733 31.4043 55.0364 50.1722 47.8502 59.6479C42.4194 66.8089 28.0309 70.8933 26.0155 74.0873C21.3331 81.5076 18.1852 92.0089 33.4301 99.5485C48.6749 107.088 60.5064 90.1613 60.5064 90.1613C60.5064 90.1613 68.9289 75.3859 65.1969 54.7141C61.4649 34.0424 54.3733 31.4043 54.3733 31.4043Z" fill="#AEC406"/>
<path d="M38.3698 13C38.3698 13 31.8698 38 43.8698 54C55.8698 70 58.3698 67.5 61.3698 73.5C64.3698 79.5 63.3698 102 38.3698 102C13.3698 102 10.3698 73.5 10.3698 73.5C10.3698 73.5 7.86982 57.5 15.8698 39.5C23.8698 21.5 38.3698 13 38.3698 13Z" fill="#AEC406"/>
<path d="M113 59.5C113 89.0472 89.0472 113 59.5 113C29.9528 113 6 89.0472 6 59.5C6 29.9528 29.9528 6 59.5 6C89.0472 6 113 29.9528 113 59.5Z" stroke="#AEC406" stroke-width="12"/>
</svg>
